# xmcd
#
# Track frame offsets: 
#        150
#        20134
#        39982
#        66994
#        89165
#        110559
#        128141
#        149245
#        170325
#        195546
#        218307
#        238774
#        261219
#        279943
#        296870
#
# Disc length: 4237 seconds
#
# Revision: 0
# Processed by: cddbd v1.5.2PL0 Copyright (c) Steve Scherf et al.
# Submitted via: ExactAudioCopyFreeDBPlugin 1.0
#
DISCID=ed108b0f
DTITLE=松山千春 - 天才・松山千春のラブバラード
DYEAR=2008
DGENRE=Folk
TTITLE0=思ひ
TTITLE1=君は花
TTITLE2=激情
TTITLE3=時計
TTITLE4=ひとりの部屋
TTITLE5=冬のアリア
TTITLE6=白い雪
TTITLE7=オロオロ
TTITLE8=君に
TTITLE9=僕なら
TTITLE10=信号
TTITLE11=祈り
TTITLE12=soupir（ため息）
TTITLE13=アヴェマリア
TTITLE14=この世で君が一番好き
EXTD=
EXTT0=
EXTT1=
EXTT2=
EXTT3=
EXTT4=
EXTT5=
EXTT6=
EXTT7=
EXTT8=
EXTT9=
EXTT10=
EXTT11=
EXTT12=
EXTT13=
EXTT14=
PLAYORDER=
